PathFileType	4	(X/Y/Z)	\\Move.snu.ac.kr\motion\Animal\091204_091205_Bird\091205_bird\Project 2\Capture day 2\Session 1\pigeon_025.trc
DataRate	CameraRate	NumFrames	NumMarkers	Units	OrigDataRate	OrigDataStartFrame	OrigNumFrames
240.0	240.0	23	14	mm	240.0	145	2738
Frame#	Time	14MarkersBird:Head			14MarkersBird:C_back			14MarkersBird:Spine			14MarkersBird:L-shoulder			14MarkersBird:L-elbow			14MarkersBird:L-wrist			14MarkersBird:L-hand			14MarkersBird:R-shoulder			14MarkersBird:R-elbow			14MarkersBird:R-Wrist			14MarkersBird:R-hand			14MarkersBird:C_Tail			14MarkersBird:L-Tale			14MarkersBird:R-Tale			
		X1	Y1	Z1	X2	Y2	Z2	X3	Y3	Z3	X4	Y4	Z4	X5	Y5	Z5	X6	Y6	Z6	X7	Y7	Z7	X8	Y8	Z8	X9	Y9	Z9	X10	Y10	Z10	X11	Y11	Z11	X12	Y12	Z12	X13	Y13	Z13	X14	Y14	Z14	

2077	8.650	294.75095	1844.80103	1271.27100	284.28918	1839.96570	1330.06323	282.42349	1834.12329	1385.46204	264.05515	1835.45740	1300.10620	246.53944	1850.64893	1318.62964	209.33409	1850.09180	1294.41699	183.90733	1863.33826	1288.33936	313.63712	1829.05249	1302.76233	331.09625	1844.11084	1322.57410	369.72610	1832.30518	1305.09387	408.11462	1837.89502	1308.52429	259.65814	1761.18579	1485.80005	187.01511	1796.81580	1412.01953	371.77228	1785.20032	1441.98584	
2078	8.654	294.76169	1845.18054	1265.12256	284.27567	1841.03748	1324.07251	283.03632	1836.05933	1379.22046	263.95114	1835.49463	1293.86267	242.89937	1846.63049	1310.61218	209.44490	1837.39575	1283.36743	182.89624	1844.03479	1274.50000	313.86911	1828.59204	1296.29163	334.49088	1838.15833	1314.26929	367.44128	1818.97388	1293.34656	405.84982	1815.00000	1292.59497	260.56946	1763.44373	1480.26611	187.69431	1798.04065	1406.77283	372.55551	1785.02173	1434.59155	
2079	8.658	294.77899	1845.33130	1258.82104	284.68170	1842.35107	1318.10144	283.71884	1838.34741	1373.15955	264.05777	1835.71985	1287.49695	240.72095	1842.40247	1302.72656	213.00052	1825.32043	1272.81726	187.23911	1824.36267	1261.48096	314.01227	1828.60706	1289.81104	336.28836	1832.08215	1305.64746	361.77908	1807.24622	1281.62915	397.47028	1794.01318	1276.46118	261.57642	1765.90625	1474.69946	188.38864	1799.72205	1401.87378	373.00137	1785.07910	1427.52954	
2080	8.663	294.80389	1845.24207	1252.39282	285.47968	1843.78174	1312.07104	284.34222	1840.14526	1366.73755	264.42288	1836.21313	1281.04736	239.92804	1838.37061	1295.35889	219.57991	1815.25793	1263.14258	196.77892	1806.56824	1249.95105	314.13696	1829.03296	1283.29138	336.63666	1826.65906	1297.28833	353.69803	1798.43909	1270.56165	384.13342	1777.17004	1261.12744	262.60440	1768.68726	1469.18835	189.10846	1801.68616	1397.30981	373.10522	1785.60815	1421.13049	
2081	8.667	294.84067	1844.91321	1245.85107	286.46408	1845.17712	1305.87610	284.98004	1841.73694	1360.29004	265.03113	1836.95569	1274.51111	240.21178	1834.89819	1288.80261	228.00633	1808.43066	1254.52075	210.17683	1793.04944	1240.22168	314.30917	1829.70801	1276.71606	336.01694	1822.54382	1289.76233	344.84070	1793.44727	1260.54431	368.08658	1766.17224	1247.24854	263.55359	1771.82373	1463.75000	189.88747	1803.64783	1392.98218	372.87762	1786.61694	1415.50403	
2082	8.671	294.92130	1844.31128	1239.16223	287.44461	1846.42126	1299.38477	285.61819	1842.82739	1353.63782	265.78745	1837.78015	1267.85010	241.15564	1832.28076	1283.13586	236.54744	1805.57922	1246.90930	225.05420	1785.40564	1232.15918	314.59445	1830.42969	1270.06360	335.11655	1820.00220	1283.41504	337.08041	1792.50635	1251.77649	352.23236	1761.50073	1235.19873	264.35162	1775.20667	1458.29541	190.76085	1805.28394	1388.70435	372.31842	1787.80432	1410.46216	
2083	8.675	295.07401	1843.39099	1232.27612	288.33896	1847.39697	1292.50195	286.21265	1843.43860	1346.75916	266.56583	1838.46594	1261.01196	242.34578	1830.78174	1278.24121	243.39948	1806.65039	1240.09937	238.62811	1783.90942	1225.30896	315.00598	1831.00085	1263.30554	334.56860	1819.04016	1278.26331	331.92569	1795.07043	1244.32556	339.39948	1762.25208	1225.17432	264.96457	1778.54358	1452.64771	191.73248	1806.32593	1384.23547	371.42990	1788.67517	1405.60535	
2084	8.679	295.24979	1842.14929	1225.18384	289.14758	1847.98633	1285.21716	286.75204	1843.65625	1339.62732	267.29144	1838.84155	1253.96826	243.48448	1830.69580	1273.90552	247.36957	1810.86475	1233.87256	248.53407	1787.53198	1219.10535	315.48538	1831.26245	1256.41492	334.70975	1819.59741	1274.08765	330.06720	1800.06519	1238.07031	331.52646	1766.57715	1217.27576	265.38272	1781.43201	1446.62231	192.75671	1806.65259	1379.30713	370.24509	1788.77551	1400.51233	
2085	8.683	295.39041	1840.61169	1217.91162	289.90732	1848.10962	1277.60193	287.23602	1843.58301	1332.25342	267.93033	1838.83521	1246.75952	244.49055	1832.19421	1269.87476	248.28784	1817.14514	1228.04114	253.40887	1794.28442	1213.21582	315.96353	1831.10449	1249.40723	335.47903	1821.59521	1270.59607	331.35141	1806.33508	1232.71448	329.18875	1772.40601	1211.53540	265.59546	1783.48560	1440.10425	193.71167	1806.32861	1373.64868	368.85593	1787.89551	1394.87317	
2086	8.688	295.56580	1838.85864	1210.51270	290.67258	1847.73926	1269.77356	287.67395	1843.29785	1324.69031	268.47705	1838.43518	1239.49280	245.55727	1835.12097	1265.82263	246.93613	1824.59985	1222.48352	253.11552	1802.09082	1207.62024	316.39966	1830.51904	1242.33691	336.47092	1824.88733	1267.40405	335.05096	1813.01587	1227.94275	331.79819	1778.23157	1207.93396	265.56573	1784.44360	1433.07251	194.42055	1805.56482	1367.02954	367.43506	1786.10632	1388.52405	
2087	8.692	295.95502	1836.99988	1203.07690	291.48193	1846.89111	1261.85168	288.07111	1842.84009	1317.02173	268.97693	1837.67493	1232.28149	247.11531	1838.98486	1261.40454	244.54826	1832.66980	1217.26257	248.54878	1809.68738	1202.72290	316.78598	1829.69299	1235.24854	337.06110	1829.23450	1263.99609	340.24185	1819.79895	1223.52307	338.24179	1783.57153	1206.43604	265.24661	1784.21692	1425.56812	194.71245	1804.65381	1359.29810	366.22299	1783.71838	1381.43835	
2088	8.696	296.64954	1835.10498	1195.68518	292.34848	1845.61780	1253.93054	288.43628	1842.17944	1309.32178	269.51056	1836.63867	1225.09094	249.64505	1843.17322	1256.42554	242.38892	1841.04883	1212.54004	241.24786	1816.99585	1199.39978	317.11197	1828.97351	1228.11487	336.64764	1834.26514	1259.79138	345.88187	1826.77222	1219.47278	347.20401	1788.94604	1207.04150	264.61450	1782.85217	1417.61536	194.51257	1803.92041	1350.43933	365.45740	1781.15833	1373.68738	
2089	8.700	297.62076	1833.22717	1188.34692	293.26608	1844.04443	1246.07153	288.78174	1841.26941	1301.61914	270.16617	1835.43835	1217.75708	253.44466	1847.12549	1250.87366	241.44157	1849.37817	1208.38770	233.18896	1824.75244	1198.52808	317.34467	1828.61450	1220.89880	334.87701	1839.47009	1254.39795	350.84641	1834.09656	1215.82703	357.15109	1795.48206	1209.53552	263.67560	1780.48596	1409.21741	193.87350	1803.63647	1340.61108	365.29163	1778.79211	1365.41077	
2090	8.704	298.78790	1831.44568	1181.02966	294.23718	1842.37854	1238.22595	289.10065	1840.08276	1293.91858	271.00696	1834.21106	1210.13599	258.49301	1850.36462	1244.80237	242.24434	1857.11609	1204.57593	226.60526	1833.75354	1200.15796	317.45398	1828.59338	1213.59290	331.78052	1844.28296	1247.77661	354.10110	1841.62976	1212.36646	366.53604	1804.25159	1213.40161	262.46307	1777.31030	1400.40588	192.93185	1803.95251	1330.12561	365.76007	1776.83936	1356.79028	
2091	8.708	300.05115	1829.84583	1173.69971	295.27008	1840.84985	1230.24426	289.35959	1838.64185	1286.24707	272.09488	1833.00525	1202.34412	264.41904	1852.50317	1238.24268	244.84566	1863.77734	1200.67590	223.27391	1844.29443	1203.16504	317.44281	1828.63647	1206.26172	327.69901	1848.14783	1240.24500	355.16254	1848.87402	1208.70764	374.03427	1815.83521	1217.94727	261.02417	1773.56897	1391.26807	191.86838	1804.87683	1319.39124	366.80405	1775.38452	1348.02844	
2092	8.712	301.31583	1828.45825	1166.31995	296.35431	1839.52747	1221.96765	289.52487	1837.00745	1278.64526	273.46466	1831.77002	1194.70349	270.56519	1853.38110	1231.20264	248.89529	1869.25122	1196.46594	223.84660	1856.06848	1205.81433	317.37665	1828.39624	1198.99866	323.15302	1850.67468	1232.31604	354.24014	1855.32959	1204.58765	378.49316	1830.12695	1222.10034	259.39606	1769.55591	1381.95142	190.88113	1806.29407	1308.83777	368.24844	1774.41479	1339.33374	
2093	8.717	302.52692	1827.23267	1158.85510	297.35675	1838.22217	1213.55701	289.61386	1835.16577	1271.13196	275.00323	1830.42578	1187.37939	276.21429	1853.12878	1223.68103	253.79733	1873.73340	1191.93677	228.00179	1868.32520	1206.79858	317.39835	1827.67126	1191.84009	318.74954	1851.77466	1224.46228	351.94171	1860.81592	1200.01306	379.14249	1846.22449	1224.57617	257.64175	1765.60571	1372.67358	190.12067	1808.01526	1298.86353	369.82370	1773.85010	1330.91577	
2094	8.721	303.68713	1826.08740	1151.29993	298.14124	1836.69885	1205.42761	289.69571	1833.01099	1263.69934	276.53552	1828.98303	1180.20215	280.88959	1852.08252	1215.73425	258.97873	1877.48718	1187.01355	235.10776	1880.11633	1205.63464	317.64557	1826.49939	1184.74744	315.03857	1851.67126	1216.82275	348.96631	1865.44019	1195.03491	375.97061	1862.67822	1224.47888	255.85959	1762.03271	1363.70557	189.65176	1809.77100	1289.74194	371.23465	1773.55945	1322.95557	
2095	8.725	304.82907	1824.97534	1143.69995	298.72989	1834.89978	1197.79736	289.71533	1831.16541	1256.28601	277.89676	1827.53223	1172.87231	284.59781	1850.68481	1207.33911	263.89145	1880.56628	1181.57495	244.38725	1890.41296	1202.41467	318.15768	1825.02234	1177.68884	312.37491	1850.73669	1209.04517	345.99936	1869.33459	1189.52551	369.90250	1877.91516	1221.50818	254.15973	1759.07434	1355.31030	189.44873	1811.15845	1281.49292	372.26956	1773.34583	1315.54688	
2096	8.729	305.96521	1823.86218	1136.12683	299.23807	1832.91956	1190.58142	290.13419	1827.48462	1248.91553	278.99445	1826.10864	1165.33704	287.63101	1849.33313	1198.42578	267.92297	1882.81958	1175.53394	254.59619	1898.32214	1197.41321	318.89713	1823.33215	1170.67334	310.90012	1849.33411	1200.57751	343.67703	1872.37854	1183.41846	362.66504	1890.65601	1215.76965	252.65852	1756.86145	1347.66150	189.40637	1811.77124	1273.81384	372.87558	1773.02637	1308.68469	
2097	8.733	307.07846	1822.70007	1128.64697	299.73828	1830.88232	1183.65564	290.42102	1824.05847	1241.53601	279.90939	1824.61267	1157.88074	290.14096	1848.25037	1188.96533	270.44397	1884.04993	1168.85645	263.90109	1903.47534	1190.78894	319.83978	1821.45142	1163.73120	310.61215	1847.74963	1191.25366	342.68698	1874.21655	1176.82275	356.42358	1900.13452	1207.66772	251.48352	1755.42053	1340.80835	189.40700	1811.47925	1266.22070	373.13541	1772.57935	1302.27271	
2098	8.738	308.16373	1821.42346	1121.29980	300.25934	1828.84875	1176.92407	290.52469	1820.92041	1234.25696	280.72653	1823.05432	1150.61023	291.77203	1847.38586	1179.20715	270.95065	1884.13574	1161.57153	270.25983	1906.15881	1182.54407	320.97568	1819.37231	1156.87988	311.52054	1846.09399	1181.51160	343.67624	1874.43555	1170.03052	353.33490	1905.93762	1197.95886	250.72540	1754.68066	1334.64417	189.40594	1810.54492	1258.31885	373.18845	1772.06421	1296.11646	
2099	8.742	309.23798	1820.01526	1114.09766	300.74017	1826.77698	1170.37439	290.51694	1818.07007	1227.06152	281.44757	1821.46204	1143.42798	291.81741	1846.40833	1169.87622	269.04529	1882.93713	1153.78064	271.88037	1906.94666	1172.67285	322.29822	1817.11743	1150.10864	313.70181	1844.30652	1172.15906	347.08502	1872.65051	1163.47559	355.11136	1907.72388	1187.83362	250.36687	1754.48169	1328.89001	189.45685	1809.42163	1249.96973	373.17743	1771.42139	1289.97437	
